FFmpeg version SVN-r25716, Copyright (c) 2000-2010 the FFmpeg developers  built on Nov 10 2010 12:23:18 with gcc 4.1.2 20080704 (Red Hat 4.1.2-48)  configuration: --enable-libmp3lame --enable-shared --disable-mmx --arch=x86_64  libavutil     50.33. 0 / 50.33. 0  libavcore      0.12. 1 /  0.12. 1  libavcodec    52.94. 4 / 52.94. 4  libavformat   52.84. 0 / 52.84. 0  libavdevice   52. 2. 2 / 52. 2. 2  libavfilter    1.59. 0 /  1.59. 0  libswscale     0.12. 0 /  0.12. 0Seems stream 0 codec frame rate differs from container frame rate: 1000.00 (1000/1) -> 12.05 (1000/83)Input #0, mov,mp4,m4a,3gp,3g2,mj2, from '/RAID10/data/converted_video_files/25634.mov':  Metadata:    major_brand     : qt      minor_version   : 537199360    compatible_brands: qt    Duration: 00:00:12.11, start: 0.000000, bitrate: 2840 kb/s    Stream #0.0(eng): Video: mpeg4, yuv420p, 762x254 [PAR 1:1 DAR 3:1], 2839 kb/s, 12.05 fps, 12.05 tbr, 1k tbn, 1k tbc[buffer @ 0x1eda6b10] w:762 h:254 pixfmt:yuv420pOutput #0, flv, to '/RAID10/data/converted_video_files/25634.flv':  Metadata:    encoder         : Lavf52.84.0    Stream #0.0(eng): Video: flv, yuv420p, 762x254 [PAR 1:1 DAR 3:1], q=2-31, 600 kb/s, 1k tbn, 24 tbcStream mapping:  Stream #0.0 -> #0.0Press [q] to stop encodingframe=   40 fps=  0 q=10.3 size=     278kB time=3.29 bitrate= 691.3kbits/s    frame=   96 fps= 91 q=7.3 size=     504kB time=7.92 bitrate= 521.7kbits/s    frame=  136 fps= 85 q=6.3 size=     690kB time=11.25 bitrate= 502.5kbits/s    frame=  146 fps= 79 q=6.9 Lsize=     743kB time=12.08 bitrate= 503.7kbits/s    video:741kB audio:0kB global headers:0kB muxing overhead 0.335755%